<?xml version="1.0"?>
<svg xmlns="http://www.w3.org/2000/svg" viewBox="-117.9895 -102.9561 284.53024 284.53024" style="background-color:white; border-radius: inherit;" class="stylist-oFyhWxO6">
  <defs>
    <filter id="double-arrow-102-100_100-131-red" x="-100%" y="-100%" width="300%" height="300%">
      <feDropShadow dx="0" dy="0" stdDeviation="1" flood-color="#ff0000"/>
    </filter>
    <filter id="double-arrow-102-100_100-131-arrow1" x="-100%" y="-100%" width="300%" height="300%">
      <feDropShadow dx="0" dy="0" stdDeviation="1" flood-color="#d3d3d3"/>
    </filter>
    <filter id="double-arrow-102-100_100-131-arrow2" x="-100%" y="-100%" width="300%" height="300%">
      <feDropShadow dx="0" dy="0" stdDeviation="1" flood-color="#d3d3d3"/>
    </filter>
  </defs>
  <path d="M 98.106903 104.995857 L 97.851486 105.616783 L 97.611862 106.239395 L 97.388092 106.863647 L 97.180222 107.489525 L 96.988274 108.116959 L 96.812317 108.745934 L 96.652382 109.376404 L 96.508514 110.008316 L 96.380737 110.641602 L 96.269081 111.276207 L 96.173584 111.912079 L 96.094254 112.549110 L 96.031120 113.187294 L 95.984207 113.826546 L 95.953491 114.466766 L 95.938988 115.107895 L 95.940704 115.749870 L 95.958611 116.392609 L 95.992714 117.036064 L 96.042984 117.680145 L 96.109398 118.324829 L 96.191925 118.970001 L 96.290535 119.615654 L 96.405205 120.261696 L 96.535881 120.908112 L 96.682526 121.554832 L 96.845100 122.201843 L 97.023575 122.849106 L 96.022568 123.137321 L 99.623047 126.606697 L 100.827377 121.753899 L 99.826370 122.042114 L 99.665489 121.458633 L 99.519287 120.876778 L 99.387703 120.296494 L 99.270699 119.717735 L 99.168236 119.140480 L 99.080292 118.564651 L 99.006813 117.990234 L 98.947769 117.417145 L 98.903145 116.845345 L 98.872902 116.274750 L 98.857025 115.705315 L 98.855507 115.136948 L 98.868347 114.569611 L 98.895523 114.003197 L 98.937019 113.437660 L 98.992889 112.872917 L 99.063126 112.308929 L 99.147728 111.745583 L 99.246750 111.182846 L 99.360184 110.620621 L 99.488075 110.058868 L 99.630478 109.497551 L 99.787407 108.936600 L 99.958923 108.375969 L 100.145035 107.815598 L 100.345810 107.255478 L 100.561310 106.695564 L 100.791565 106.135826Z" fill="rgb(211, 211, 211)" stroke="none" style="cursor: pointer;"/>
  <path d="M 105.494019 127.701180 L 105.749443 127.080254 L 105.989044 126.457634 L 106.212830 125.833389 L 106.420708 125.207527 L 106.612648 124.580078 L 106.788589 123.951088 L 106.948524 123.320633 L 107.092407 122.688721 L 107.220207 122.055450 L 107.331841 121.420830 L 107.427345 120.784966 L 107.506653 120.147896 L 107.569786 119.509727 L 107.616730 118.870491 L 107.647430 118.230270 L 107.661934 117.589142 L 107.660217 116.947166 L 107.642311 116.304420 L 107.608208 115.660973 L 107.557938 115.016876 L 107.491524 114.372208 L 107.408997 113.727028 L 107.310387 113.081398 L 107.195717 112.435341 L 107.065048 111.788933 L 106.918396 111.142197 L 106.755806 110.495186 L 106.577347 109.847931 L 107.578354 109.559715 L 103.977875 106.090340 L 102.773544 110.943138 L 103.774551 110.654922 L 103.935417 111.238396 L 104.081635 111.820251 L 104.213226 112.400551 L 104.330223 112.979301 L 104.432686 113.556572 L 104.520630 114.132378 L 104.594109 114.706802 L 104.653152 115.279877 L 104.697777 115.851692 L 104.728020 116.422279 L 104.743896 116.991722 L 104.745415 117.560089 L 104.732574 118.127426 L 104.705414 118.693840 L 104.663887 119.259361 L 104.608017 119.824089 L 104.537804 120.388115 L 104.453194 120.951454 L 104.354195 121.514206 L 104.240738 122.076416 L 104.112831 122.638168 L 103.970428 123.199471 L 103.813515 123.760437 L 103.642006 124.321083 L 103.455887 124.881439 L 103.255096 125.441551 L 103.039619 126.001472 L 102.809357 126.561211Z" fill="rgb(211, 211, 211)" stroke="none" style="cursor: pointer;"/>
  <defs>
    <filter id="double-arrow-102-100_74-72-red" x="-100%" y="-100%" width="300%" height="300%">
      <feDropShadow dx="0" dy="0" stdDeviation="1" flood-color="#ff0000"/>
    </filter>
    <filter id="double-arrow-102-100_74-72-arrow1" x="-100%" y="-100%" width="300%" height="300%">
      <feDropShadow dx="0" dy="0" stdDeviation="1" flood-color="#d3d3d3"/>
    </filter>
    <filter id="double-arrow-102-100_74-72-arrow2" x="-100%" y="-100%" width="300%" height="300%">
      <feDropShadow dx="0" dy="0" stdDeviation="1" flood-color="#d3d3d3"/>
    </filter>
  </defs>
  <path d="M 102.566078 94.329597 L 102.048691 93.513756 L 101.520081 92.708809 L 100.980270 91.914780 L 100.429260 91.131683 L 99.867035 90.359528 L 99.293617 89.598343 L 98.709015 88.848152 L 98.113243 88.108963 L 97.506294 87.380791 L 96.888168 86.663651 L 96.258919 85.957573 L 95.618500 85.262550 L 94.966965 84.578629 L 94.304321 83.905815 L 93.630569 83.244110 L 92.945740 82.593529 L 92.249840 81.954094 L 91.542877 81.325813 L 90.824875 80.708710 L 90.095856 80.102768 L 89.355827 79.508018 L 88.604820 78.924469 L 87.842842 78.352127 L 87.069901 77.790985 L 86.286034 77.241066 L 85.491249 76.702362 L 84.685570 76.174881 L 83.869003 75.658623 L 84.418678 74.773796 L 79.421280 74.612442 L 81.780251 79.020988 L 82.329926 78.136162 L 83.107445 78.627731 L 83.874214 79.129730 L 84.630257 79.642174 L 85.375580 80.165054 L 86.110207 80.698380 L 86.834145 81.242157 L 87.547432 81.796394 L 88.250076 82.361099 L 88.942093 82.936279 L 89.623505 83.521935 L 90.294319 84.118095 L 90.954559 84.724754 L 91.604233 85.341934 L 92.243362 85.969643 L 92.871964 86.607895 L 93.490051 87.256706 L 94.097649 87.916115 L 94.694733 88.586090 L 95.281349 89.266685 L 95.857491 89.957886 L 96.423172 90.659737 L 96.978401 91.372253 L 97.523193 92.095444 L 98.057556 92.829330 L 98.581482 93.573914 L 99.094971 94.329231 L 99.598053 95.095314 L 100.090706 95.872139Z" fill="rgb(211, 211, 211)" stroke="none" style="cursor: pointer;"/>
  <path d="M 74.558105 78.854546 L 75.075493 79.670395 L 75.604095 80.475327 L 76.143921 81.269363 L 76.694923 82.052467 L 77.257141 82.824608 L 77.830551 83.585793 L 78.415169 84.335991 L 79.010948 85.075180 L 79.617897 85.803368 L 80.236015 86.520493 L 80.865273 87.226570 L 81.505669 87.921577 L 82.157211 88.605499 L 82.819862 89.278328 L 83.493607 89.940041 L 84.178444 90.590614 L 84.874352 91.230049 L 85.581306 91.858330 L 86.299301 92.475433 L 87.028328 93.081375 L 87.768349 93.676125 L 88.519356 94.259674 L 89.281349 94.832024 L 90.054283 95.393158 L 90.838158 95.943085 L 91.632927 96.481781 L 92.438614 97.009270 L 93.255180 97.525520 L 92.705505 98.410347 L 97.702904 98.571701 L 95.343933 94.163155 L 94.794258 95.047981 L 94.016739 94.556419 L 93.249962 94.054413 L 92.493935 93.541977 L 91.748604 93.019089 L 91.013985 92.485771 L 90.290031 91.941986 L 89.576744 91.387749 L 88.874107 90.823044 L 88.182083 90.247864 L 87.500679 89.662209 L 86.829872 89.066048 L 86.169624 88.459389 L 85.519943 87.842216 L 84.880821 87.214500 L 84.252213 86.576233 L 83.634117 85.927422 L 83.026543 85.268028 L 82.429451 84.598053 L 81.842842 83.917473 L 81.266701 83.226257 L 80.701012 82.524406 L 80.145767 81.811882 L 79.600983 81.088692 L 79.066628 80.354820 L 78.542709 79.610229 L 78.029205 78.854904 L 77.526131 78.088837 L 77.033478 77.312004Z" fill="rgb(211, 211, 211)" stroke="none" style="cursor: pointer;"/>
  <defs>
    <filter id="arrow-drop-shadow-106.92219-99.07917_131.14774-89.346565-red" x="-50%" y="-50%" width="200%" height="200%">
      <feDropShadow dx="0" dy="0" stdDeviation="1" flood-color="#ff0000"/>
    </filter>
    <filter id="arrow-drop-shadow-106.92219-99.07917_131.14774-89.346565-color" x="-50%" y="-50%" width="200%" height="200%">
      <feDropShadow dx="0" dy="0" stdDeviation="1" flood-color="#d3d3d3"/>
    </filter>
  </defs>
  <polygon data-testid="arrow" points="128.69954,101.57917 133.02966,99.07917 128.69954,96.57917 128.69954,97.620834 106.92219,97.620834 106.92219,100.537506 128.69954,100.537506" style="cursor: pointer; fill: rgb(211, 211, 211);" transform-origin="106.92219 99.07917" transform="rotate(-21.887766)"/>
  <defs>
    <filter id="double-arrow-116-32_96-50-red" x="-100%" y="-100%" width="300%" height="300%">
      <feDropShadow dx="0" dy="0" stdDeviation="1" flood-color="#ff0000"/>
    </filter>
    <filter id="double-arrow-116-32_96-50-arrow1" x="-100%" y="-100%" width="300%" height="300%">
      <feDropShadow dx="0" dy="0" stdDeviation="1" flood-color="#d3d3d3"/>
    </filter>
    <filter id="double-arrow-116-32_96-50-arrow2" x="-100%" y="-100%" width="300%" height="300%">
      <feDropShadow dx="0" dy="0" stdDeviation="1" flood-color="#d3d3d3"/>
    </filter>
  </defs>
  <path d="M 109.936340 32.606842 L 109.427391 32.763596 L 108.928009 32.933186 L 108.438347 33.115692 L 107.958466 33.311153 L 107.488495 33.519627 L 107.028557 33.741158 L 106.578789 33.975754 L 106.139374 34.223427 L 105.710411 34.484173 L 105.292068 34.757957 L 104.884544 35.044750 L 104.487946 35.344482 L 104.102478 35.657070 L 103.728264 35.982426 L 103.365417 36.320438 L 103.014091 36.670975 L 102.674385 37.033909 L 102.346420 37.409092 L 102.030228 37.796368 L 101.725899 38.195591 L 101.433472 38.606606 L 101.152969 39.029259 L 100.884399 39.463402 L 100.627739 39.908897 L 100.382980 40.365616 L 100.150101 40.833427 L 99.929024 41.312229 L 99.719727 41.801922 L 98.756226 41.406013 L 99.422859 46.361374 L 103.381012 43.306374 L 102.417511 42.910465 L 102.594414 42.496571 L 102.780029 42.094536 L 102.974304 41.704277 L 103.177193 41.325668 L 103.388657 40.958595 L 103.608688 40.602921 L 103.837250 40.258514 L 104.074379 39.925213 L 104.320084 39.602886 L 104.574417 39.291363 L 104.837425 38.990498 L 105.109200 38.700134 L 105.389832 38.420132 L 105.679420 38.150356 L 105.978088 37.890675 L 106.285995 37.640991 L 106.603294 37.401196 L 106.930099 37.171219 L 107.266609 36.950993 L 107.612946 36.740471 L 107.969276 36.539635 L 108.335777 36.348473 L 108.712585 36.166996 L 109.099823 35.995228 L 109.497643 35.833199 L 109.906128 35.680958 L 110.325432 35.538567 L 110.755600 35.406082Z" fill="rgb(211, 211, 211)" stroke="none" style="cursor: pointer;"/>
  <path d="M 102.273529 51.112278 L 102.782486 50.955524 L 103.281845 50.785931 L 103.771523 50.603432 L 104.251404 50.407970 L 104.721375 50.199486 L 105.181305 49.977959 L 105.631073 49.743366 L 106.070511 49.495693 L 106.499474 49.234951 L 106.917801 48.961159 L 107.325325 48.674370 L 107.721901 48.374630 L 108.107376 48.062046 L 108.481606 47.736694 L 108.844452 47.398678 L 109.195778 47.048141 L 109.535484 46.685211 L 109.863449 46.310032 L 110.179642 45.922752 L 110.483963 45.523525 L 110.776398 45.112514 L 111.056900 44.689861 L 111.325485 44.255718 L 111.582130 43.810223 L 111.826889 43.353508 L 112.059769 42.885689 L 112.280838 42.406887 L 112.490143 41.917198 L 113.453644 42.313107 L 112.787010 37.357746 L 108.828857 40.412746 L 109.792358 40.808655 L 109.615448 41.222546 L 109.429840 41.624580 L 109.235565 42.014847 L 109.032677 42.393452 L 108.821213 42.760525 L 108.601181 43.116199 L 108.372620 43.460606 L 108.135483 43.793903 L 107.889786 44.116234 L 107.635452 44.427761 L 107.372444 44.728622 L 107.100670 45.018990 L 106.820038 45.298985 L 106.530449 45.568764 L 106.231766 45.828442 L 105.923851 46.078121 L 105.606575 46.317924 L 105.279770 46.547897 L 104.943275 46.768131 L 104.596939 46.978649 L 104.240585 47.179485 L 103.874084 47.370644 L 103.497284 47.552116 L 103.110046 47.723896 L 102.712227 47.885925 L 102.303726 48.038158 L 101.884445 48.180553 L 101.454269 48.313038Z" fill="rgb(211, 211, 211)" stroke="none" style="cursor: pointer;"/>
  <defs>
    <filter id="arrow-drop-shadow-130.31824-117.7952_106.57461-103.122345-red" x="-50%" y="-50%" width="200%" height="200%">
      <feDropShadow dx="0" dy="0" stdDeviation="1" flood-color="#ff0000"/>
    </filter>
    <filter id="arrow-drop-shadow-130.31824-117.7952_106.57461-103.122345-color" x="-50%" y="-50%" width="200%" height="200%">
      <feDropShadow dx="0" dy="0" stdDeviation="1" flood-color="#d3d3d3"/>
    </filter>
  </defs>
  <polygon data-testid="arrow" points="153.89963,120.2952 158.22975,117.7952 153.89963,115.2952 153.89963,116.33686 130.31824,116.33686 130.31824,119.25353 153.89963,119.25353" style="cursor: pointer; fill: rgb(211, 211, 211);" transform-origin="130.31824 117.7952" transform="rotate(-148.28519)"/>
  <defs>
    <filter id="arrow-drop-shadow--5.1545367-58.532936_-28.54293-42.998756-red" x="-50%" y="-50%" width="200%" height="200%">
      <feDropShadow dx="0" dy="0" stdDeviation="1" flood-color="#ff0000"/>
    </filter>
    <filter id="arrow-drop-shadow--5.1545367-58.532936_-28.54293-42.998756-color" x="-50%" y="-50%" width="200%" height="200%">
      <feDropShadow dx="0" dy="0" stdDeviation="1" flood-color="#d3d3d3"/>
    </filter>
  </defs>
  <polygon data-testid="arrow" points="18.59251,61.032936 22.922638,58.532936 18.59251,56.032936 18.59251,57.074604 -5.1545367,57.074604 -5.1545367,59.99127 18.59251,59.99127" style="cursor: pointer; fill: rgb(211, 211, 211);" transform-origin="-5.1545367 58.532936" transform="rotate(-146.40857)"/>
  <defs>
    <filter id="double-arrow--1-61_24-43-red" x="-100%" y="-100%" width="300%" height="300%">
      <feDropShadow dx="0" dy="0" stdDeviation="1" flood-color="#ff0000"/>
    </filter>
    <filter id="double-arrow--1-61_24-43-arrow1" x="-100%" y="-100%" width="300%" height="300%">
      <feDropShadow dx="0" dy="0" stdDeviation="1" flood-color="#d3d3d3"/>
    </filter>
    <filter id="double-arrow--1-61_24-43-arrow2" x="-100%" y="-100%" width="300%" height="300%">
      <feDropShadow dx="0" dy="0" stdDeviation="1" flood-color="#d3d3d3"/>
    </filter>
  </defs>
  <path d="M 4.783247 62.080597 L 5.423871 61.905209 L 6.056126 61.716297 L 6.679959 61.513855 L 7.295315 61.297859 L 7.902134 61.068287 L 8.500355 60.825146 L 9.089913 60.568424 L 9.670740 60.298122 L 10.242771 60.014248 L 10.805934 59.716805 L 11.360163 59.405823 L 11.905387 59.081314 L 12.441541 58.743320 L 12.968559 58.391876 L 13.486380 58.027004 L 13.994942 57.648766 L 14.494189 57.257202 L 14.984073 56.852364 L 15.464544 56.434307 L 15.935564 56.003090 L 16.397095 55.558781 L 16.849106 55.101425 L 17.291573 54.631100 L 17.724476 54.147854 L 18.147800 53.651756 L 18.561535 53.142864 L 18.965683 52.621231 L 19.360243 52.086926 L 20.205212 52.696102 L 20.709589 47.721607 L 16.149361 49.772053 L 16.994329 50.381229 L 16.639496 50.861748 L 16.276939 51.329700 L 15.906667 51.785141 L 15.528668 52.228123 L 15.142940 52.658710 L 14.749463 53.076965 L 14.348224 53.482952 L 13.939192 53.876724 L 13.522341 54.258350 L 13.097632 54.627892 L 12.665025 54.985397 L 12.224474 55.330925 L 11.775925 55.664532 L 11.319324 55.986267 L 10.854613 56.296162 L 10.381728 56.594269 L 9.900604 56.880623 L 9.411174 57.155243 L 8.913370 57.418163 L 8.407122 57.669392 L 7.892362 57.908947 L 7.369021 58.136829 L 6.837034 58.353054 L 6.296337 58.557610 L 5.746865 58.750473 L 5.188561 58.931644 L 4.621370 59.101116 L 4.045238 59.258842Z" fill="rgb(211, 211, 211)" stroke="none" style="cursor: pointer;"/>
  <path d="M 17.986977 42.426037 L 17.346352 42.601429 L 16.714096 42.790329 L 16.090263 42.992775 L 15.474908 43.208778 L 14.868088 43.438339 L 14.269867 43.681480 L 13.680311 43.938210 L 13.099482 44.208511 L 12.527453 44.492390 L 11.964288 44.789829 L 11.410059 45.100811 L 10.864833 45.425312 L 10.328680 45.763306 L 9.801662 46.114758 L 9.283842 46.479630 L 8.775280 46.857868 L 8.276031 47.249432 L 7.786149 47.654270 L 7.305677 48.072323 L 6.834657 48.503540 L 6.373127 48.947853 L 5.921116 49.405205 L 5.478649 49.875538 L 5.045746 50.358780 L 4.622423 50.854877 L 4.208685 51.363770 L 3.804537 51.885399 L 3.409979 52.419708 L 2.565010 51.810532 L 2.060633 56.785027 L 6.620861 54.734581 L 5.775892 54.125404 L 6.130726 53.644882 L 6.493282 53.176933 L 6.863556 52.721493 L 7.241554 52.278511 L 7.627283 51.847927 L 8.020759 51.429665 L 8.421999 51.023682 L 8.831029 50.629906 L 9.247881 50.248280 L 9.672589 49.878742 L 10.105196 49.521236 L 10.545748 49.175709 L 10.994297 48.842102 L 11.450897 48.520367 L 11.915607 48.210464 L 12.388492 47.912357 L 12.869617 47.626011 L 13.359048 47.351391 L 13.856854 47.088474 L 14.363100 46.837242 L 14.877861 46.597687 L 15.401199 46.369797 L 15.933187 46.153572 L 16.473885 45.949028 L 17.023357 45.756157 L 17.581657 45.574982 L 18.148853 45.405521 L 18.724983 45.247791Z" fill="rgb(211, 211, 211)" stroke="none" style="cursor: pointer;"/>
  <defs>
    <filter id="arrow-drop-shadow--4.1883807-64.55937_-19.942429-84.584755-red" x="-50%" y="-50%" width="200%" height="200%">
      <feDropShadow dx="0" dy="0" stdDeviation="1" flood-color="#ff0000"/>
    </filter>
    <filter id="arrow-drop-shadow--4.1883807-64.55937_-19.942429-84.584755-color" x="-50%" y="-50%" width="200%" height="200%">
      <feDropShadow dx="0" dy="0" stdDeviation="1" flood-color="#d3d3d3"/>
    </filter>
  </defs>
  <polygon data-testid="arrow" points="16.961014,67.05937 21.291142,64.55937 16.961014,62.059372 16.961014,63.10104 -4.1883807,63.10104 -4.1883807,66.01771 16.961014,66.01771" style="cursor: pointer; fill: rgb(211, 211, 211);" transform-origin="-4.1883807 64.55937" transform="rotate(128.19228)"/>
  <defs>
    <filter id="double-arrow-74-72_59-92-red" x="-100%" y="-100%" width="300%" height="300%">
      <feDropShadow dx="0" dy="0" stdDeviation="1" flood-color="#ff0000"/>
    </filter>
    <filter id="double-arrow-74-72_59-92-arrow1" x="-100%" y="-100%" width="300%" height="300%">
      <feDropShadow dx="0" dy="0" stdDeviation="1" flood-color="#d3d3d3"/>
    </filter>
    <filter id="double-arrow-74-72_59-92-arrow2" x="-100%" y="-100%" width="300%" height="300%">
      <feDropShadow dx="0" dy="0" stdDeviation="1" flood-color="#d3d3d3"/>
    </filter>
  </defs>
  <path d="M 68.394623 73.397003 L 67.959404 73.609711 L 67.535904 73.833336 L 67.124290 74.067947 L 66.724686 74.313637 L 66.337265 74.570442 L 65.962204 74.838440 L 65.599716 75.117622 L 65.250000 75.407974 L 64.913284 75.709488 L 64.589775 76.022072 L 64.279724 76.345634 L 63.983326 76.680061 L 63.700806 77.025192 L 63.432350 77.380836 L 63.178120 77.746788 L 62.938267 78.122818 L 62.712906 78.508698 L 62.502121 78.904175 L 62.305962 79.308998 L 62.124447 79.722939 L 61.957588 80.145744 L 61.805325 80.577194 L 61.667614 81.017113 L 61.544376 81.465286 L 61.435509 81.921570 L 61.340900 82.385811 L 61.260448 82.857903 L 61.194019 83.337753 L 60.160133 83.210663 L 62.113140 87.813461 L 65.122780 83.820709 L 64.088898 83.693619 L 64.143021 83.302544 L 64.207916 82.921684 L 64.283463 82.550919 L 64.369530 82.190155 L 64.466019 81.839241 L 64.572823 81.498016 L 64.689873 81.166298 L 64.817101 80.843895 L 64.954491 80.530571 L 65.102013 80.226105 L 65.259705 79.930237 L 65.427605 79.642731 L 65.605812 79.363335 L 65.794441 79.091820 L 65.993622 78.827957 L 66.203537 78.571526 L 66.424377 78.322350 L 66.656334 78.080299 L 66.899643 77.845215 L 67.154526 77.616989 L 67.421204 77.395592 L 67.699890 77.180954 L 67.990814 76.973091 L 68.294159 76.772026 L 68.610115 76.577774 L 68.938843 76.390419 L 69.280510 76.210022 L 69.635208 76.036682Z" fill="rgb(211, 211, 211)" stroke="none" style="cursor: pointer;"/>
  <path d="M 65.580750 91.862068 L 66.015976 91.649353 L 66.439453 91.425735 L 66.851089 91.191116 L 67.250694 90.945442 L 67.638107 90.688614 L 68.013161 90.420624 L 68.375664 90.141457 L 68.725380 89.851097 L 69.062096 89.549599 L 69.385597 89.237000 L 69.695656 88.913429 L 69.992035 88.579002 L 70.274559 88.233879 L 70.543022 87.878235 L 70.797249 87.512283 L 71.037102 87.136253 L 71.262466 86.750374 L 71.473259 86.354904 L 71.669411 85.950066 L 71.850922 85.536125 L 72.017792 85.113335 L 72.170052 84.681870 L 72.307770 84.241966 L 72.431000 83.793785 L 72.539879 83.337517 L 72.634476 82.873260 L 72.714920 82.401161 L 72.781364 81.921318 L 73.815247 82.048409 L 71.862244 77.445610 L 68.852600 81.438362 L 69.886482 81.565453 L 69.832352 81.956520 L 69.767456 82.337387 L 69.691917 82.708153 L 69.605850 83.068916 L 69.509369 83.419838 L 69.402550 83.761047 L 69.285507 84.092766 L 69.158264 84.415169 L 69.020882 84.728493 L 68.873360 85.032974 L 68.715668 85.328835 L 68.547768 85.616341 L 68.369560 85.895737 L 68.180931 86.167252 L 67.981743 86.431114 L 67.771835 86.687538 L 67.551003 86.936714 L 67.319038 87.178772 L 67.075737 87.413872 L 66.820854 87.642082 L 66.554176 87.863487 L 66.275475 88.078110 L 65.984558 88.285965 L 65.681221 88.487053 L 65.365265 88.681290 L 65.036514 88.868652 L 64.694870 89.049042 L 64.340164 89.222389Z" fill="rgb(211, 211, 211)" stroke="none" style="cursor: pointer;"/>
  <defs>
    <filter id="double-arrow-74-72_96-50-red" x="-100%" y="-100%" width="300%" height="300%">
      <feDropShadow dx="0" dy="0" stdDeviation="1" flood-color="#ff0000"/>
    </filter>
    <filter id="double-arrow-74-72_96-50-arrow1" x="-100%" y="-100%" width="300%" height="300%">
      <feDropShadow dx="0" dy="0" stdDeviation="1" flood-color="#d3d3d3"/>
    </filter>
    <filter id="double-arrow-74-72_96-50-arrow2" x="-100%" y="-100%" width="300%" height="300%">
      <feDropShadow dx="0" dy="0" stdDeviation="1" flood-color="#d3d3d3"/>
    </filter>
  </defs>
  <path d="M 80.647118 72.360329 L 81.237419 72.081573 L 81.817078 71.790993 L 82.386047 71.488571 L 82.944244 71.174301 L 83.491623 70.848160 L 84.028107 70.510178 L 84.553642 70.160347 L 85.068146 69.798691 L 85.571556 69.425209 L 86.063774 69.039940 L 86.544785 68.642914 L 87.014473 68.234161 L 87.472794 67.813728 L 87.919708 67.381683 L 88.355103 66.938049 L 88.778969 66.482903 L 89.191238 66.016296 L 89.591873 65.538300 L 89.980835 65.048981 L 90.358093 64.548393 L 90.723618 64.036629 L 91.077385 63.513748 L 91.419403 62.979820 L 91.749641 62.434914 L 92.068115 61.879089 L 92.374802 61.312416 L 92.669739 60.734959 L 92.952927 60.146774 L 93.896667 60.587719 L 93.464676 55.606415 L 89.366730 58.471180 L 90.310471 58.912125 L 90.056778 59.439045 L 89.793274 59.954971 L 89.519974 60.459953 L 89.236870 60.954063 L 88.943985 61.437347 L 88.641289 61.909889 L 88.328812 62.371750 L 88.006500 62.823002 L 87.674377 63.263718 L 87.332382 63.693954 L 86.980484 64.113785 L 86.618675 64.523293 L 86.246887 64.922516 L 85.865082 65.311539 L 85.473190 65.690407 L 85.071175 66.059189 L 84.658966 66.417908 L 84.236488 66.766624 L 83.803703 67.105370 L 83.360489 67.434189 L 82.906837 67.753075 L 82.442627 68.062073 L 81.967819 68.361206 L 81.482346 68.650452 L 80.986130 68.929825 L 80.479095 69.199318 L 79.961205 69.458939 L 79.432396 69.708656Z" fill="rgb(211, 211, 211)" stroke="none" style="cursor: pointer;"/>
  <path d="M 89.871040 50.894718 L 89.280739 51.173470 L 88.701065 51.464050 L 88.132118 51.766476 L 87.573914 52.080753 L 87.026527 52.406879 L 86.490044 52.744865 L 85.964516 53.094696 L 85.450012 53.456364 L 84.946617 53.829845 L 84.454376 54.215111 L 83.973381 54.612137 L 83.503677 55.020882 L 83.045349 55.441303 L 82.598450 55.873363 L 82.163055 56.316994 L 81.739189 56.772144 L 81.326920 57.238750 L 80.926285 57.716747 L 80.537315 58.206070 L 80.160065 58.706646 L 79.794548 59.218418 L 79.440765 59.741299 L 79.098763 60.275227 L 78.768517 60.820137 L 78.450050 61.375961 L 78.143349 61.942631 L 77.848412 62.520088 L 77.565231 63.108276 L 76.621490 62.667332 L 77.053482 67.648636 L 81.151428 64.783867 L 80.207687 64.342926 L 80.461372 63.816002 L 80.724876 63.300076 L 80.998192 62.795097 L 81.281288 62.300987 L 81.574181 61.817699 L 81.876862 61.345158 L 82.189354 60.883297 L 82.511658 60.432041 L 82.843788 59.991333 L 83.185776 59.561092 L 83.537674 59.141254 L 83.899483 58.731754 L 84.271271 58.332527 L 84.653076 57.943501 L 85.044952 57.564625 L 85.446976 57.195854 L 85.859200 56.837135 L 86.281662 56.488419 L 86.714470 56.149677 L 87.157669 55.820866 L 87.611320 55.501968 L 88.075523 55.192963 L 88.550331 54.893841 L 89.035812 54.604595 L 89.532036 54.325222 L 90.039047 54.055717 L 90.556953 53.796104 L 91.085762 53.546391Z" fill="rgb(211, 211, 211)" stroke="none" style="cursor: pointer;"/>
  <defs>
    <filter id="arrow-drop-shadow-70.47915-70.17976_28.07471-45.731644-red" x="-50%" y="-50%" width="200%" height="200%">
      <feDropShadow dx="0" dy="0" stdDeviation="1" flood-color="#ff0000"/>
    </filter>
    <filter id="arrow-drop-shadow-70.47915-70.17976_28.07471-45.731644-color" x="-50%" y="-50%" width="200%" height="200%">
      <feDropShadow dx="0" dy="0" stdDeviation="1" flood-color="#d3d3d3"/>
    </filter>
  </defs>
  <polygon data-testid="arrow" points="115.096405,72.67976 119.42653,70.17976 115.096405,67.67976 115.096405,68.72143 70.47915,68.72143 70.47915,71.6381 115.096405,71.6381" style="cursor: pointer; fill: rgb(211, 211, 211);" transform-origin="70.47915 70.17976" transform="rotate(-150.03458)"/>
  <text text-anchor="middle" x="51.152584" y="61.0371" font-size="2" stroke="white" stroke-width="1" paint-order="stroke" stroke-linejoin="round" fill="black">Internal</text>
  <defs>
    <filter id="arrow-drop-shadow--12.487297--7.073546_6.808164--9.452827-red" x="-50%" y="-50%" width="200%" height="200%">
      <feDropShadow dx="0" dy="0" stdDeviation="1" flood-color="#ff0000"/>
    </filter>
    <filter id="arrow-drop-shadow--12.487297--7.073546_6.808164--9.452827-color" x="-50%" y="-50%" width="200%" height="200%">
      <feDropShadow dx="0" dy="0" stdDeviation="1" flood-color="#d3d3d3"/>
    </filter>
  </defs>
  <polygon data-testid="arrow" points="2.624177,-4.573546 6.9543037,-7.073546 2.624177,-9.573545 2.624177,-8.531878 -12.487297,-8.531879 -12.487297,-5.6152124 2.624177,-5.6152124" style="cursor: pointer; fill: rgb(211, 211, 211);" transform-origin="-12.487297 -7.073546" transform="rotate(-7.029534)" filter="url(#arrow-drop-shadow--12.487297--7.073546_6.808164--9.452827-color)"/>
  <text text-anchor="middle" x="-4.9883556" y="-5.9982243" font-size="2" stroke="white" stroke-width="1" paint-order="stroke" stroke-linejoin="round" fill="black">Window Properties (Size, Layer)</text>
  <defs>
    <filter id="double-arrow-24-43_-11-30-red" x="-100%" y="-100%" width="300%" height="300%">
      <feDropShadow dx="0" dy="0" stdDeviation="1" flood-color="#ff0000"/>
    </filter>
    <filter id="double-arrow-24-43_-11-30-arrow1" x="-100%" y="-100%" width="300%" height="300%">
      <feDropShadow dx="0" dy="0" stdDeviation="1" flood-color="#d3d3d3"/>
    </filter>
    <filter id="double-arrow-24-43_-11-30-arrow2" x="-100%" y="-100%" width="300%" height="300%">
      <feDropShadow dx="0" dy="0" stdDeviation="1" flood-color="#d3d3d3"/>
    </filter>
  </defs>
  <path d="M 21.281313 37.774559 L 20.542233 37.286625 L 19.797621 36.813362 L 19.047489 36.354809 L 18.291847 35.910973 L 17.530714 35.481869 L 16.764103 35.067528 L 15.992033 34.667957 L 15.214524 34.283184 L 14.431594 33.913223 L 13.643258 33.558075 L 12.849548 33.217777 L 12.050480 32.892326 L 11.246080 32.581741 L 10.436375 32.286041 L 9.621387 32.005222 L 8.801141 31.739296 L 7.975664 31.488270 L 7.144983 31.252153 L 6.309124 31.030951 L 5.468111 30.824650 L 4.621974 30.633276 L 3.770736 30.456810 L 2.914422 30.295259 L 2.053059 30.148615 L 1.186671 30.016874 L 0.315280 29.900032 L -0.561092 29.798079 L -1.442420 29.711012 L -1.348946 28.673548 L -5.885942 30.774897 L -1.797622 33.653374 L -1.704148 32.615913 L -0.872939 32.698025 L -0.047009 32.794109 L 0.773662 32.904152 L 1.589098 33.028145 L 2.399323 33.166080 L 3.204362 33.317959 L 4.004237 33.483776 L 4.798974 33.663525 L 5.588602 33.857220 L 6.373143 34.064838 L 7.152626 34.286404 L 7.927076 34.521912 L 8.696520 34.771366 L 9.460981 35.034775 L 10.220490 35.312149 L 10.975067 35.603493 L 11.724741 35.908825 L 12.469531 36.228149 L 13.209466 36.561493 L 13.944560 36.908855 L 14.674839 37.270252 L 15.400322 37.645714 L 16.121027 38.035244 L 16.836975 38.438873 L 17.548176 38.856609 L 18.254644 39.288475 L 18.956398 39.734493 L 19.653448 40.194687Z" fill="rgb(211, 211, 211)" stroke="none" style="cursor: pointer;"/>
  <path d="M -8.474554 36.579987 L -7.735475 37.067921 L -6.990862 37.541180 L -6.240729 37.999737 L -5.485089 38.443577 L -4.723956 38.872673 L -3.957345 39.287018 L -3.185276 39.686588 L -2.407765 40.071365 L -1.624833 40.441330 L -0.836500 40.796467 L -0.042789 41.136768 L 0.756278 41.462215 L 1.560677 41.772797 L 2.370384 42.068504 L 3.185372 42.349323 L 4.005619 42.615250 L 4.831095 42.866276 L 5.661776 43.102386 L 6.497635 43.323597 L 7.338648 43.529888 L 8.184785 43.721272 L 9.036023 43.897728 L 9.892338 44.059288 L 10.753700 44.205933 L 11.620089 44.337673 L 12.491479 44.454514 L 13.367850 44.556461 L 14.249179 44.643532 L 14.155705 45.680996 L 18.692701 43.579647 L 14.604381 40.701168 L 14.510907 41.738632 L 13.679698 41.656513 L 12.853768 41.560432 L 12.033096 41.450397 L 11.217661 41.326401 L 10.407436 41.188469 L 9.602397 41.036583 L 8.802522 40.870770 L 8.007784 40.691013 L 7.218156 40.497326 L 6.433615 40.289703 L 5.654133 40.068142 L 4.879683 39.832634 L 4.110239 39.583179 L 3.345776 39.319771 L 2.586268 39.042397 L 1.831690 38.751049 L 1.082017 38.445721 L 0.337226 38.126392 L -0.402707 37.793060 L -1.137801 37.445694 L -1.868081 37.084293 L -2.593565 36.708832 L -3.314270 36.319298 L -4.030215 35.915676 L -4.741416 35.497936 L -5.447886 35.066067 L -6.149641 34.620052 L -6.846690 34.159859Z" fill="rgb(211, 211, 211)" stroke="none" style="cursor: pointer;"/>
  <defs>
    <filter id="double-arrow-24-43_35-12-red" x="-100%" y="-100%" width="300%" height="300%">
      <feDropShadow dx="0" dy="0" stdDeviation="1" flood-color="#ff0000"/>
    </filter>
    <filter id="double-arrow-24-43_35-12-arrow1" x="-100%" y="-100%" width="300%" height="300%">
      <feDropShadow dx="0" dy="0" stdDeviation="1" flood-color="#d3d3d3"/>
    </filter>
    <filter id="double-arrow-24-43_35-12-arrow2" x="-100%" y="-100%" width="300%" height="300%">
      <feDropShadow dx="0" dy="0" stdDeviation="1" flood-color="#d3d3d3"/>
    </filter>
  </defs>
  <path d="M 29.820934 40.639053 L 30.252897 40.058395 L 30.670116 39.471973 L 31.072552 38.879803 L 31.460161 38.281902 L 31.832903 37.678288 L 32.190735 37.068996 L 32.533627 36.454044 L 32.861538 35.833477 L 33.174427 35.207317 L 33.472260 34.575603 L 33.755009 33.938389 L 34.022644 33.295712 L 34.275139 32.647614 L 34.512474 31.994156 L 34.734627 31.335379 L 34.941578 30.671337 L 35.133316 30.002085 L 35.309837 29.327673 L 35.471127 28.648155 L 35.617195 27.963579 L 35.748043 27.274004 L 35.863667 26.579477 L 35.964088 25.880049 L 36.049309 25.175760 L 36.119350 24.466663 L 36.174225 23.752792 L 36.213959 23.034195 L 36.238579 22.310905 L 37.279957 22.335394 L 34.882450 17.947689 L 32.281338 22.217844 L 33.322716 22.242332 L 33.300194 22.904171 L 33.263901 23.560585 L 33.213856 24.211613 L 33.150078 24.857290 L 33.072594 25.497667 L 32.981411 26.132780 L 32.876545 26.762682 L 32.758003 27.387419 L 32.625797 28.007042 L 32.479927 28.621599 L 32.320381 29.231150 L 32.147167 29.835739 L 31.960274 30.435427 L 31.759684 31.030262 L 31.545387 31.620293 L 31.317360 32.205578 L 31.075583 32.786160 L 30.820030 33.362087 L 30.550667 33.933414 L 30.267462 34.500164 L 29.970385 35.062382 L 29.659397 35.620113 L 29.334467 36.173374 L 28.995550 36.722210 L 28.642605 37.266636 L 28.275593 37.806675 L 27.894480 38.342354 L 27.499214 38.873672Z" fill="rgb(211, 211, 211)" stroke="none" style="cursor: pointer;"/>
  <path d="M 29.387922 15.324223 L 28.955959 15.904880 L 28.538738 16.491301 L 28.136303 17.083471 L 27.748697 17.681374 L 27.375950 18.284985 L 27.018118 18.894278 L 26.675226 19.509228 L 26.347319 20.129803 L 26.034433 20.755962 L 25.736595 21.387671 L 25.453846 22.024885 L 25.186209 22.667564 L 24.933712 23.315659 L 24.696381 23.969122 L 24.474232 24.627897 L 24.267281 25.291939 L 24.075539 25.961191 L 23.899019 26.635603 L 23.737726 27.315123 L 23.591660 27.999695 L 23.460812 28.689270 L 23.345188 29.383797 L 23.244772 30.083231 L 23.159550 30.787514 L 23.089510 31.496614 L 23.034630 32.210484 L 22.994896 32.929077 L 22.970280 33.652370 L 21.928900 33.627884 L 24.326408 38.015587 L 26.927519 33.745430 L 25.886139 33.720943 L 25.908661 33.059105 L 25.944958 32.402691 L 25.995005 31.751665 L 26.058777 31.105984 L 26.136263 30.465612 L 26.227444 29.830494 L 26.332310 29.200592 L 26.450851 28.575855 L 26.583059 27.956236 L 26.728933 27.341677 L 26.888474 26.732126 L 27.061687 26.127537 L 27.248585 25.527849 L 27.449169 24.933016 L 27.663464 24.342979 L 27.891493 23.757694 L 28.133270 23.177111 L 28.388828 22.601183 L 28.658194 22.029865 L 28.941393 21.463116 L 29.238470 20.900890 L 29.549456 20.343164 L 29.874386 19.789898 L 30.213308 19.241066 L 30.566250 18.696638 L 30.933258 18.156595 L 31.314377 17.620924 L 31.709642 17.089603Z" fill="rgb(211, 211, 211)" stroke="none" style="cursor: pointer;"/>
  <defs>
    <filter id="arrow-drop-shadow--41.411366-19.659798_-15.585492-29.297258-red" x="-50%" y="-50%" width="200%" height="200%">
      <feDropShadow dx="0" dy="0" stdDeviation="1" flood-color="#ff0000"/>
    </filter>
    <filter id="arrow-drop-shadow--41.411366-19.659798_-15.585492-29.297258-color" x="-50%" y="-50%" width="200%" height="200%">
      <feDropShadow dx="0" dy="0" stdDeviation="1" flood-color="#d3d3d3"/>
    </filter>
  </defs>
  <polygon data-testid="arrow" points="-18.175999,22.159798 -13.845872,19.659798 -18.175999,17.159798 -18.175999,18.201464 -41.411366,18.201464 -41.411366,21.118132 -18.175999,21.118132" style="cursor: pointer; fill: rgb(211, 211, 211);" transform-origin="-41.411366 19.659798" transform="rotate(20.46411)"/>
  <defs>
    <filter id="arrow-drop-shadow--34.635235-61.4523_-14.09411-34.451946-red" x="-50%" y="-50%" width="200%" height="200%">
      <feDropShadow dx="0" dy="0" stdDeviation="1" flood-color="#ff0000"/>
    </filter>
    <filter id="arrow-drop-shadow--34.635235-61.4523_-14.09411-34.451946-color" x="-50%" y="-50%" width="200%" height="200%">
      <feDropShadow dx="0" dy="0" stdDeviation="1" flood-color="#d3d3d3"/>
    </filter>
  </defs>
  <polygon data-testid="arrow" points="-5.039604,63.9523 -0.7094774,61.4523 -5.039604,58.9523 -5.039604,59.99397 -34.635235,59.99397 -34.635235,62.910633 -5.039604,62.910633" style="cursor: pointer; fill: rgb(211, 211, 211);" transform-origin="-34.635235 61.4523" transform="rotate(-52.73712)"/>
  <defs>
    <filter id="arrow-drop-shadow-14.542844--6.9105053_31.76411-9.386244-red" x="-50%" y="-50%" width="200%" height="200%">
      <feDropShadow dx="0" dy="0" stdDeviation="1" flood-color="#ff0000"/>
    </filter>
    <filter id="arrow-drop-shadow-14.542844--6.9105053_31.76411-9.386244-color" x="-50%" y="-50%" width="200%" height="200%">
      <feDropShadow dx="0" dy="0" stdDeviation="1" flood-color="#d3d3d3"/>
    </filter>
  </defs>
  <polygon data-testid="arrow" points="33.922546,-4.4105053 38.252674,-6.9105053 33.922546,-9.410505 33.922546,-8.368838 14.542844,-8.368838 14.542844,-5.4521723 33.922546,-5.4521723" style="cursor: pointer; fill: rgb(211, 211, 211);" transform-origin="14.542844 -6.9105053" transform="rotate(43.42003)"/>
  <defs>
    <filter id="arrow-drop-shadow--34.591743-36.64142_-43.32708-21.954144-red" x="-50%" y="-50%" width="200%" height="200%">
      <feDropShadow dx="0" dy="0" stdDeviation="1" flood-color="#ff0000"/>
    </filter>
    <filter id="arrow-drop-shadow--34.591743-36.64142_-43.32708-21.954144-color" x="-50%" y="-50%" width="200%" height="200%">
      <feDropShadow dx="0" dy="0" stdDeviation="1" flood-color="#d3d3d3"/>
    </filter>
  </defs>
  <polygon data-testid="arrow" points="-21.833214,39.14142 -17.503086,36.64142 -21.833214,34.14142 -21.833214,35.183086 -34.591743,35.183086 -34.591743,38.09975 -21.833214,38.09975" style="cursor: pointer; fill: rgb(211, 211, 211);" transform-origin="-34.591743 36.64142" transform="rotate(-120.74231)"/>
  <defs>
    <filter id="arrow-drop-shadow--25.13403-84.32075_-34.950623-68.834435-red" x="-50%" y="-50%" width="200%" height="200%">
      <feDropShadow dx="0" dy="0" stdDeviation="1" flood-color="#ff0000"/>
    </filter>
    <filter id="arrow-drop-shadow--25.13403-84.32075_-34.950623-68.834435-color" x="-50%" y="-50%" width="200%" height="200%">
      <feDropShadow dx="0" dy="0" stdDeviation="1" flood-color="#d3d3d3"/>
    </filter>
  </defs>
  <polygon data-testid="arrow" points="-11.128634,86.82075 -6.7985077,84.32075 -11.128634,81.82075 -11.128634,82.86241 -25.13403,82.86241 -25.13403,85.77908 -11.128634,85.77908" style="cursor: pointer; fill: rgb(211, 211, 211);" transform-origin="-25.13403 84.32075" transform="rotate(-122.37013)"/>
  <defs>
    <filter id="arrow-drop-shadow--12.0341015-26.4199_-16.288853--2.0721817-red" x="-50%" y="-50%" width="200%" height="200%">
      <feDropShadow dx="0" dy="0" stdDeviation="1" flood-color="#ff0000"/>
    </filter>
    <filter id="arrow-drop-shadow--12.0341015-26.4199_-16.288853--2.0721817-color" x="-50%" y="-50%" width="200%" height="200%">
      <feDropShadow dx="0" dy="0" stdDeviation="1" flood-color="#d3d3d3"/>
    </filter>
  </defs>
  <polygon data-testid="arrow" points="12.443785,28.9199 16.77391,26.4199 12.443785,23.9199 12.443785,24.961567 -12.0341015,24.961567 -12.0341015,27.878235 12.443785,27.878235" style="cursor: pointer; fill: rgb(211, 211, 211);" transform-origin="-12.0341015 26.4199" transform="rotate(-98.493286)"/>
  <defs>
    <filter id="arrow-drop-shadow-37.926468-9.033176_54.798515--11.0586815-red" x="-50%" y="-50%" width="200%" height="200%">
      <feDropShadow dx="0" dy="0" stdDeviation="1" flood-color="#ff0000"/>
    </filter>
    <filter id="arrow-drop-shadow-37.926468-9.033176_54.798515--11.0586815-color" x="-50%" y="-50%" width="200%" height="200%">
      <feDropShadow dx="0" dy="0" stdDeviation="1" flood-color="#d3d3d3"/>
    </filter>
  </defs>
  <polygon data-testid="arrow" points="59.83274,11.533176 64.162865,9.033176 59.83274,6.5331764 59.83274,7.5748434 37.926468,7.5748434 37.926468,10.491509 59.83274,10.491509" style="cursor: pointer; fill: rgb(211, 211, 211);" transform-origin="37.926468 9.033176" transform="rotate(-49.978287)"/>
  <defs>
    <filter id="arrow-drop-shadow-103.09995-160.66748_101.20505-136.42662-red" x="-50%" y="-50%" width="200%" height="200%">
      <feDropShadow dx="0" dy="0" stdDeviation="1" flood-color="#ff0000"/>
    </filter>
    <filter id="arrow-drop-shadow-103.09995-160.66748_101.20505-136.42662-color" x="-50%" y="-50%" width="200%" height="200%">
      <feDropShadow dx="0" dy="0" stdDeviation="1" flood-color="#d3d3d3"/>
    </filter>
  </defs>
  <polygon data-testid="arrow" points="123.08463,163.16748 127.41476,160.66748 123.08463,158.16748 123.08463,159.20915 103.09995,159.20915 103.09995,162.12581 123.08463,162.12581" style="cursor: pointer; fill: rgb(211, 211, 211);" transform-origin="103.09995 160.66748" transform="rotate(-94.46972)"/>
  <defs>
    <filter id="arrow-drop-shadow--15.456619-32.75345_-28.204308-38.62616-red" x="-50%" y="-50%" width="200%" height="200%">
      <feDropShadow dx="0" dy="0" stdDeviation="1" flood-color="#ff0000"/>
    </filter>
    <filter id="arrow-drop-shadow--15.456619-32.75345_-28.204308-38.62616-color" x="-50%" y="-50%" width="200%" height="200%">
      <feDropShadow dx="0" dy="0" stdDeviation="1" flood-color="#d3d3d3"/>
    </filter>
  </defs>
  <polygon data-testid="arrow" points="-5.7513514,35.25345 -1.4212246,32.75345 -5.7513514,30.253448 -5.7513514,31.295115 -15.456619,31.295115 -15.456619,34.21178 -5.7513514,34.21178" style="cursor: pointer; fill: rgb(211, 211, 211);" transform-origin="-15.456619 32.75345" transform="rotate(155.26503)"/>
  <text text-anchor="middle" x="-19.864038" y="36.783897" font-size="2" stroke="white" stroke-width="1" paint-order="stroke" stroke-linejoin="round" fill="black">Textbox Properties</text>
  <circle filter="none" cx="102.74657" cy="100.75673" r="4" fill="lightyellow" stroke="black" stroke-width="1"/>
  <text text-anchor="middle" x="102.74657" y="95.55673" font-size="4" stroke="white" stroke-width="1" paint-order="stroke" stroke-linejoin="round">Compositor</text>
  <circle filter="none" cx="100.854355" cy="131.9403" r="4" fill="lightyellow" stroke="black" stroke-width="1"/>
  <text text-anchor="middle" x="100.854355" y="126.74031" font-size="4" stroke="white" stroke-width="1" paint-order="stroke" stroke-linejoin="round">Window Layout Engine</text>
  <circle filter="none" cx="74.37762" cy="72.427414" r="4" fill="lightyellow" stroke="black" stroke-width="1"/>
  <text text-anchor="middle" x="74.37762" y="67.22742" font-size="4" stroke="white" stroke-width="1" paint-order="stroke" stroke-linejoin="round">PipeWire</text>
  <circle filter="none" cx="135.32335" cy="87.66901" r="4" fill="lightyellow" stroke="black" stroke-width="1"/>
  <text text-anchor="middle" x="135.32335" y="82.46901" font-size="4" stroke="white" stroke-width="1" paint-order="stroke" stroke-linejoin="round">Display Hardware</text>
  <circle filter="none" cx="103.450645" cy="165.1538" r="4" fill="lightyellow" stroke="black" stroke-width="1"/>
  <text text-anchor="middle" x="103.450645" y="159.9538" font-size="4" stroke="white" stroke-width="1" paint-order="stroke" stroke-linejoin="round">[Plugin: Layout Plugin]</text>
  <circle filter="none" cx="134.14627" cy="120.16081" r="4" fill="lightyellow" stroke="black" stroke-width="1"/>
  <text text-anchor="middle" x="134.14627" y="114.960815" font-size="4" stroke="white" stroke-width="1" paint-order="stroke" stroke-linejoin="round">Lib Input</text>
  <circle filter="none" cx="-1.4060196" cy="61.02264" r="4" fill="lightyellow" stroke="black" stroke-width="1"/>
  <text text-anchor="middle" x="-1.4060196" y="55.82264" font-size="4" stroke="white" stroke-width="1" paint-order="stroke" stroke-linejoin="round">Node: Input Node</text>
  <circle filter="none" cx="-32.291447" cy="40.509056" r="4" fill="lightyellow" stroke="black" stroke-width="1"/>
  <text text-anchor="middle" x="-32.291447" y="35.309055" font-size="4" stroke="white" stroke-width="1" paint-order="stroke" stroke-linejoin="round">Source Port: Keyboard</text>
  <circle filter="none" cx="24.17624" cy="43.483994" r="4" fill="lightyellow" stroke="black" stroke-width="1"/>
  <text text-anchor="middle" x="24.17624" y="38.283993" font-size="4" stroke="white" stroke-width="1" paint-order="stroke" stroke-linejoin="round">PipeWire Graph</text>
  <circle filter="none" cx="-22.72479" cy="88.12148" r="4" fill="lightyellow" stroke="black" stroke-width="1"/>
  <text text-anchor="middle" x="-22.72479" y="82.921486" font-size="4" stroke="white" stroke-width="1" paint-order="stroke" stroke-linejoin="round">Source Port: Mouse</text>
  <circle filter="none" cx="59.597763" cy="92.83166" r="4" fill="lightyellow" stroke="black" stroke-width="1"/>
  <text text-anchor="middle" x="59.597763" y="87.63166" font-size="4" stroke="white" stroke-width="1" paint-order="stroke" stroke-linejoin="round">[Application (DE, IME, normal app)]</text>
  <circle filter="none" cx="96.14054" cy="50.827637" r="4" fill="lightyellow" stroke="black" stroke-width="1"/>
  <text text-anchor="middle" x="96.14054" y="45.627636" font-size="4" stroke="white" stroke-width="1" paint-order="stroke" stroke-linejoin="round">Wayland Shim</text>
  <circle filter="none" cx="-11.369481" cy="30.87055" r="4" fill="lightyellow" stroke="black" stroke-width="1"/>
  <text text-anchor="middle" x="-11.369481" y="25.670551" font-size="4" stroke="white" stroke-width="1" paint-order="stroke" stroke-linejoin="round">[Node: Application Window/Desktop Environment/IME Node]</text>
  <circle filter="none" cx="35.032616" cy="12.47928" r="4" fill="lightyellow" stroke="black" stroke-width="1"/>
  <text text-anchor="middle" x="35.032616" y="7.2792807" font-size="4" stroke="white" stroke-width="1" paint-order="stroke" stroke-linejoin="round">[Node: GPU Node]</text>
  <circle filter="none" cx="-45.627377" cy="18.086506" r="4" fill="lightyellow" stroke="black" stroke-width="1"/>
  <text text-anchor="middle" x="-45.627377" y="12.886506" font-size="4" stroke="white" stroke-width="1" paint-order="stroke" stroke-linejoin="round">Sink Port: Keyboard</text>
  <circle filter="none" cx="-37.359863" cy="65.0337" r="4" fill="lightyellow" stroke="black" stroke-width="1"/>
  <text text-anchor="middle" x="-37.359863" y="59.8337" font-size="4" stroke="white" stroke-width="1" paint-order="stroke" stroke-linejoin="round">Sink Port: Mouse</text>
  <circle filter="none" cx="11.274339" cy="-10.003542" r="4" fill="lightyellow" stroke="black" stroke-width="1"/>
  <text text-anchor="middle" x="11.274339" y="-15.203542" font-size="4" stroke="white" stroke-width="1" paint-order="stroke" stroke-linejoin="round">Sink Port: Video (DMA Buf)</text>
  <circle filter="none" cx="116.06933" cy="32.891483" r="4" fill="lightyellow" stroke="black" stroke-width="1"/>
  <text text-anchor="middle" x="116.06933" y="27.691483" font-size="4" stroke="white" stroke-width="1" paint-order="stroke" stroke-linejoin="round">[Wayland Application]</text>
  <circle filter="none" cx="-16.953472" cy="-6.5228314" r="4" fill="lightyellow" stroke="black" stroke-width="1"/>
  <text text-anchor="middle" x="-16.953472" y="-11.722832" font-size="4" stroke="white" stroke-width="1" paint-order="stroke" stroke-linejoin="round">[Source Port: Video with Custom Framerate]</text>
  <circle filter="none" cx="57.692364" cy="-14.504786" r="4" fill="lightyellow" stroke="black" stroke-width="1"/>
  <text text-anchor="middle" x="57.692364" y="-19.704784" font-size="4" stroke="white" stroke-width="1" paint-order="stroke" stroke-linejoin="round">[Source Port: Monitor]</text>
</svg>
